<?xml version="1.0" encoding="UTF-8"?>
<svg id="uuid-198b5def-d7e1-43e6-b696-7eed2395b494" data-name="Camada 1" xmlns="http://www.w3.org/2000/svg" viewBox="0 0 359.43 203.32">
  <path d="M224.31,183.21c0,3.66.09,7.13.96,10.16.22-.02.43-.04.65-.05.61-3.28-1-8.5-1.6-11.46v1.35h0Z" style="fill: #fff;"/>
  <path d="M311.16,190.97c-2.5,2.78-6.16,4.59-9.02,6.6h57.29c-11.69-4.17-13.41-6.63-13.41-17.79V17.21c0-10.11,2.39-13.27,12.18-17.11-13.2,0-26.4.16-39.59-.1-3.87-.07-5.5,1.2-6.89,4.55-20.61,49.72-41.37,99.38-62.11,149.05-.71,1.71-1.54,3.37-2.64,5.77-.82-1.76-1.23-2.57-1.58-3.41-21.04-50.54-42.12-101.08-63.04-151.67-1.34-3.24-2.99-4.34-6.58-4.28-12.77.2-25.54.07-38.31.09-1.32,0-2.64.19-3.96.3.78.95,1.61,1.16,2.44,1.34,3.26.69,5.47,1.52,6.99,2.76.12.08.24.16.35.25.15.09.3.18.44.28.07.05.15.09.22.14.11.07.22.15.33.23.47.2.89.46,1.24.79.64.28,1.17.69,1.58,1.19,0,0,0,.01.02.02.26.12.51.26.73.43.08.06.14.13.21.2.58.44,1.02,1.02,1.33,1.66.03,0,.06-.02.09-.02,26.84,64.16,53.69,128.33,81.02,193.65,27.61-66.09,54.71-130.95,81.81-195.8,1.16.85,1.29,1.3,1.29,1.74.01,58.01.05,116.02-.07,174.02,0,2.61-.68,5.83-2.35,7.69h-.01Z"/>
  <path d="M25.35,202.88H.11c-.04-.23-.07-.46-.11-.69.67-.23,1.33-.53,2.02-.68,7.78-1.64,13.08-6.1,16.01-13.1,5.8-13.86,11.7-27.7,17.14-41.69,1.68-4.31,4.01-5.64,8.72-5.6,23.47.23,46.94.1,70.41.1h6.4c-3.79-9.2-7.25-17.68-10.78-26.14-9.79-23.5-19.63-46.98-29.38-70.5-.55-1.32-1.12-3.1-.64-4.28,5.31-13.04,10.83-26,16.67-39.89,1.06,1.88,1.8,2.92,2.28,4.06,25.33,60.73,50.7,121.45,75.9,182.23,3.54,8.53,9.45,13.86,18.91,16.05h-60.92c2.09-.72,3-1.05,3.93-1.34,4.52-1.43,6.33-4.24,5.27-8.83-.58-2.51-1.63-4.93-2.63-7.34-5.37-12.88-10.87-25.72-16.15-38.63-1.16-2.83-2.73-3.92-5.99-3.9-24.75.13-49.49.13-74.24.04-2.99,0-4.56.88-5.67,3.61-5.81,14.19-11.87,28.28-17.72,42.45-3.12,7.55-1.82,10.27,5.81,14.06h0Z"/>
</svg>