<?xml version="1.0" encoding="UTF-8"?>
<svg id="uuid-6e650b97-ef1f-4e97-a251-6ec4c9ed38de" data-name="Camada 1" xmlns="http://www.w3.org/2000/svg" viewBox="0 0 359.8 23.35">
  <g style="isolation: isolate;">
    <g style="isolation: isolate;">
      <path d="M15.8,13.92H4.66l-2.4,3.93H.06L9.2,3.15h2.09l9.14,14.7h-2.23l-2.4-3.93ZM15.02,12.66l-4.8-7.89-4.8,7.89h9.6Z"/>
    </g>
    <g style="isolation: isolate;">
      <path d="M47.93,17.85l-4.57-4.72c-.51.04-1.03.06-1.6.06h-5.37v4.66h-2.11V3.15h7.48c5.08,0,8.17,1.89,8.17,5.04,0,2.31-1.66,3.93-4.57,4.62l4.88,5.04h-2.31ZM47.82,8.19c0-2.35-2.11-3.7-6.11-3.7h-5.31v7.37h5.31c4,0,6.11-1.36,6.11-3.67Z"/>
    </g>
    <g style="isolation: isolate;">
      <path d="M69.06,4.5h-7.03v-1.34h16.17v1.34h-7.03v13.35h-2.11V4.5Z"/>
      <path d="M112.9,3.15v14.7h-2.03V6.09l-7.86,9.89h-1l-7.85-9.83v11.69h-2.03V3.15h1.74l8.68,10.9,8.6-10.9h1.74Z"/>
      <path d="M144.12,16.51v1.34h-14.14V3.15h13.71v1.34h-11.6v5.23h10.34v1.32h-10.34v5.46h12.03Z"/>
      <path d="M159.65,3.15h8.14c6.4,0,10.71,3.02,10.71,7.35s-4.31,7.35-10.71,7.35h-8.14V3.15ZM167.68,16.51c5.31,0,8.74-2.48,8.74-6s-3.43-6-8.74-6h-5.91v12.01h5.91Z"/>
      <path d="M210.09,10.5c0-4.3,4.46-7.47,10.48-7.47,2.91,0,5.54.71,7.31,2.14l-1.34.99c-1.63-1.22-3.63-1.74-5.91-1.74-4.83,0-8.46,2.6-8.46,6.09s3.63,6.09,8.46,6.09c2.29,0,4.29-.52,5.91-1.76l1.34.99c-1.77,1.43-4.4,2.16-7.34,2.16-6,0-10.46-3.17-10.46-7.47Z"/>
      <path d="M242.96,3.15h2.11v13.35h11.2v1.34h-13.31V3.15Z"/>
      <path d="M270.35,3.15h2.11v14.7h-2.11V3.15Z"/>
      <path d="M306.25,3.15v14.7h-1.74l-12.85-11.93v11.93h-2.11V3.15h1.74l12.88,11.93V3.15h2.09Z"/>
      <path d="M323.33,3.15h2.11v14.7h-2.11V3.15Z"/>
      <path d="M340.75,10.5c0-4.3,4.46-7.47,10.48-7.47,2.91,0,5.54.71,7.31,2.14l-1.34.99c-1.63-1.22-3.63-1.74-5.91-1.74-4.83,0-8.46,2.6-8.46,6.09s3.63,6.09,8.46,6.09c2.29,0,4.29-.52,5.91-1.76l1.34.99c-1.77,1.43-4.4,2.16-7.34,2.16-6,0-10.46-3.17-10.46-7.47Z"/>
    </g>
  </g>
</svg>